<svg
    viewBox="76 52 489 489"
    fill="none"
    xmlns="http://www.w3.org/2000/svg"
>
    <path
    fill="#EA333F"
    d="M554.1,276.9c3.2,65.4-15.6,123.6-59,172.8c-43.1,48.9-97.7,76.1-162.7,80.6c-64.4,4.5-122-14.5-171.2-56.4 c-47.4-40.4-75.3-92.1-82.2-154c-7.6-67.2,10.1-127.7,53.5-179.8c43.4-52.1,99.6-80.6,167.2-85.6c44.8-3.3,87.3,5.8,127.1,26.7 c38.9,20.5,69.8,49.6,92.8,87.1C544.4,208.3,552.4,248.9,554.1,276.9z M329.7,466.7c48.2-4.5,89.5-25,121-63.3 c31.5-38.2,44.4-82.5,38.7-131.7c-5.5-46.7-26.8-85.2-63.2-114.8c-37.6-30.6-81-43.3-129.2-38.1c-47.6,5.1-86.8,26.7-116.9,63.8 c-30.5,37.6-43,81.1-37.8,129.2c5.2,47,26.5,85.8,63,115.8C241.1,456.9,282.5,469.4,329.7,466.7z"
    />
    <path
    fill="#EA333F"
    d="M312,297.8c-0.8,2.1-1.6,4-2.4,6c-4.6,11.7-9.1,23.3-13.7,35c-4.5,11.4-8.9,22.9-13.4,34.3 c-1.7,4.2-3.3,8.5-5.3,12.5c-1.9,3.8-4.5,7.1-7.8,10c-2.9,2.5-6,4.6-9.5,6.2c-3.7,1.7-7.7,2.9-11.8,3.2c-2.8,0.2-5.7,0.3-8.4,0 c-4.6-0.6-9.1-2-13.2-4.3c-9.8-5.5-15.9-13.8-18.6-24.6c-0.6-2.6-1-5.3-1-8c0-5.1,1.1-10.1,3-14.8c2.3-5.8,4.5-11.6,6.8-17.4 c1.9-5,3.9-9.9,5.9-14.9c3.2-8.2,6.4-16.4,9.6-24.6c4.9-12.6,9.8-25.1,14.8-37.7c6.5-16.7,13.1-33.4,19.6-50.1 c3.6-9.2,7.1-18.5,10.8-27.7c2.2-5.5,5.7-10.1,10.2-14c4.9-4.2,10.4-7,16.7-8.1c2.6-0.5,5.3-0.5,7.9-0.6c8.5-0.2,16,2.6,22.6,7.7 c4.1,3.1,7.6,6.9,9.8,11.6c1.6,3.5,3.1,7,4.5,10.6c2.7,6.8,5.3,13.6,7.9,20.3c2.6,6.8,5.3,13.5,7.9,20.3c2.7,6.8,5.4,13.6,8,20.4 c3.3,8.3,6.5,16.7,9.7,25c2.7,6.8,5.4,13.6,8,20.4c3.1,7.9,6.1,15.8,9.2,23.7c3.6,9.2,7.3,18.4,10.9,27.6c1.7,4.3,3.3,8.7,4.7,13.1 c0.6,1.9,0.7,4,0.9,6.1c0.1,2.2,0.2,4.3,0,6.5c-0.2,3.7-1.2,7.3-2.6,10.7c-1.3,3-3,5.8-5,8.5c-3.5,4.7-8,8.1-13.2,10.7 c-4.1,2-8.5,3.2-13.1,3.7c-9.7,0.9-18.4-1.8-26.1-7.7c-5.9-4.5-9.9-10.4-12.5-17.3c-2.9-7.6-5.9-15.1-8.9-22.7 c-4.5-11.6-9-23.2-13.5-34.7c-3.2-8.1-6.3-16.2-9.5-24.2C312.3,298.2,312.2,298.1,312,297.8z"
    />
</svg>
