<svg
    viewBox="96 52 401 115"
    style="enable-background: new 0 0 595.3 227.2;fill: currentColor;"
    xmlns="http://www.w3.org/2000/svg"
  >
    <path
      fill="#E9343F"
      d="M184.4,135c-7.4,9.2-18.8,15.1-31.6,15.1c-22.4,0-40.6-18.2-40.6-40.6c0-22.4,18.2-40.6,40.6-40.6 c16.7,0,31,10,37.3,24.4l-0.2,0.1c4.1-2.8,9-4.5,14.3-4.8l0,0c-8.3-20.3-28.2-34.6-51.4-34.6c-30.6,0-55.5,24.8-55.5,55.5 c0,30.6,24.8,55.5,55.5,55.5c17.9,0,33.8-8.5,44-21.6l0,0C191.9,141.6,187.7,138.7,184.4,135L184.4,135z"
    />
    <rect
      x="123.4"
      y="98.1"
      transform="matrix(0.3645, -0.9312, 0.9312, 0.3645, -7.2844, 202.812503)"
      fill="#E9343F"
      width="43.1"
      height="17.3"
    />
    <path
      fill="#E9343F"
      d="M145.2,130c-1.7,4.5-6.8,6.7-11.2,4.9c-4.5-1.7-6.7-6.8-4.9-11.2c1.7-4.5,6.8-6.7,11.2-4.9 C144.7,120.5,146.9,125.5,145.2,130z"
    />
    <rect
      x="152"
      y="85.2"
      transform="matrix(0.9312, -0.3644, 0.3644, 0.9312, -27.852601, 65.892503)"
      fill="#E9343F"
      width="17.3"
      height="43.1"
    />
    <path
      fill="#E9343F"
      d="M144.7,89.8c1.7,4.5,6.8,6.7,11.2,4.9c4.5-1.7,6.7-6.8,4.9-11.2c-1.7-4.5-6.8-6.7-11.2-4.9 C145.2,80.3,143,85.4,144.7,89.8z"
    />
    <path
      fill="#E9343F"
      d="M160.4,130c1.7,4.5,6.8,6.7,11.2,4.9c4.5-1.7,6.7-6.8,4.9-11.2c-1.7-4.5-6.8-6.7-11.2-4.9 C160.9,120.5,158.7,125.5,160.4,130z"
    />
    <g>
      <path
        d="M214.7,124.5c1,0,1.9,0.3,2.5,1c0.7,0.7,1,1.5,1,2.5c0,1-0.4,1.9-1.1,2.6c-3.5,3.1-7.6,4.6-12.4,4.6 c-5.2,0-9.7-1.9-13.4-5.6c-3.7-3.7-5.6-8.2-5.6-13.4c0-5.2,1.9-9.7,5.6-13.4c3.7-3.7,8.2-5.6,13.4-5.6c4.8,0,8.9,1.5,12.4,4.6 c0.8,0.7,1.2,1.6,1.2,2.7c0,1-0.3,1.9-1,2.5c-0.7,0.7-1.5,1-2.5,1c-0.9,0-1.6-0.3-2.3-0.8c-1.2-1-2.4-1.7-3.6-2.2 c-1.3-0.5-2.6-0.7-4.1-0.7c-1.6,0-3.2,0.3-4.6,0.9c-1.4,0.6-2.7,1.5-3.8,2.5c-1.1,1.1-1.9,2.3-2.6,3.8c-0.6,1.4-0.9,3-0.9,4.6 c0,1.6,0.3,3.2,0.9,4.6c0.6,1.4,1.5,2.7,2.6,3.8c1.1,1.1,2.3,1.9,3.8,2.5c1.4,0.6,3,0.9,4.6,0.9c1.5,0,2.9-0.2,4.1-0.7 c1.3-0.5,2.5-1.2,3.6-2.2C213.1,124.8,213.8,124.5,214.7,124.5z"
      />
      <path
        d="M227.1,97.3h1.6V84.6c0-1,0.3-1.8,1-2.5c0.7-0.7,1.5-1,2.5-1c1,0,1.8,0.3,2.5,1c0.7,0.7,1,1.5,1,2.5v12.7h4.2 c1,0,1.8,0.3,2.5,1c0.7,0.7,1,1.5,1,2.5c0,1-0.3,1.8-1,2.5c-0.7,0.7-1.5,1-2.5,1h-4.2v17c0,4.5,2.3,6.7,6.8,6.7c1,0,1.8,0.3,2.5,1 c0.7,0.7,1,1.5,1,2.5c0,1-0.3,1.8-1,2.5c-0.7,0.7-1.5,1-2.5,1c-9.2,0-13.9-4.6-13.9-13.8v-17h-1.6c-0.9,0-1.8-0.3-2.5-1 c-0.7-0.7-1-1.5-1-2.5c0-1,0.3-1.8,1-2.5C225.3,97.6,226.1,97.3,227.1,97.3z"
      />
      <path
        d="M260.4,90.6c0,1.2-0.4,2.1-1.2,2.9c-0.8,0.8-1.8,1.2-2.9,1.2s-2.1-0.4-2.9-1.2c-0.8-0.8-1.2-1.8-1.2-2.9 s0.4-2.1,1.2-2.9c0.8-0.8,1.8-1.2,2.9-1.2s2.1,0.4,2.9,1.2C260,88.4,260.4,89.4,260.4,90.6z M252.7,131.7v-30.8c0-1,0.3-1.8,1-2.5 c0.7-0.7,1.5-1,2.5-1s1.8,0.3,2.5,1c0.7,0.7,1,1.5,1.1,2.5v30.8c0,1-0.4,1.8-1.1,2.5c-0.7,0.7-1.5,1-2.5,1s-1.8-0.3-2.5-1 C253.1,133.5,252.7,132.7,252.7,131.7z"
      />
      <path
        d="M274.1,100.8c3-2.3,6.5-3.5,10.6-3.5c2.4,0,4.6,0.5,6.8,1.4s4,2.2,5.6,3.8c1.6,1.6,2.9,3.5,3.9,5.6 c0.9,2.2,1.4,4.5,1.4,6.9v16.7c0,1-0.3,1.8-1,2.5c-0.7,0.7-1.5,1-2.5,1c-1,0-1.8-0.3-2.5-1c-0.7-0.7-1-1.5-1-2.5V115 c0-1.4-0.3-2.8-0.8-4.1c-0.6-1.3-1.3-2.4-2.3-3.4s-2.1-1.7-3.4-2.3c-1.3-0.6-2.7-0.8-4.1-0.8c-1.5,0-2.8,0.3-4.1,0.8 c-1.3,0.6-2.4,1.3-3.4,2.3c-1,1-1.7,2.1-2.3,3.4c-0.6,1.3-0.8,2.7-0.8,4.1v16.7c0,1-0.3,1.8-1,2.5c-0.7,0.7-1.5,1-2.5,1 c-1,0-1.8-0.3-2.5-1c-0.7-0.7-1-1.5-1-2.5v-30.8c0-1,0.3-1.8,1-2.5c0.7-0.7,1.5-1,2.5-1c1,0,1.8,0.4,2.5,1 C273.8,99.1,274.1,99.9,274.1,100.8z"
      />
      <path
        d="M325.4,135.2c-1.5,0-2.5-0.6-3.1-1.9L308,102.2c-0.2-0.5-0.3-0.9-0.3-1.4s0.1-0.9,0.3-1.4 c0.2-0.4,0.4-0.8,0.7-1.1c0.3-0.3,0.7-0.6,1.1-0.8s0.9-0.3,1.4-0.3c0.6,0,1.2,0.2,1.8,0.5c0.6,0.3,1,0.7,1.3,1.3l11.1,24.1l11-24.1 c0.7-1.2,1.7-1.8,3.1-1.8c0.5,0,1,0.1,1.4,0.3s0.8,0.4,1.1,0.8c0.3,0.3,0.6,0.7,0.8,1.1c0.2,0.4,0.3,0.9,0.3,1.4 c0,0.5-0.1,1-0.3,1.4l-14.3,31.1C327.8,134.6,326.8,135.2,325.4,135.2z"
      />
      <path
        d="M357.9,90.6c0,1.2-0.4,2.1-1.2,2.9c-0.8,0.8-1.8,1.2-2.9,1.2s-2.1-0.4-2.9-1.2c-0.8-0.8-1.2-1.8-1.2-2.9 s0.4-2.1,1.2-2.9c0.8-0.8,1.8-1.2,2.9-1.2s2.1,0.4,2.9,1.2C357.5,88.4,357.9,89.4,357.9,90.6z M350.3,131.7v-30.8 c0-1,0.3-1.8,1-2.5c0.7-0.7,1.5-1,2.5-1s1.8,0.3,2.5,1c0.7,0.7,1,1.5,1.1,2.5v30.8c0,1-0.4,1.8-1.1,2.5c-0.7,0.7-1.5,1-2.5,1 s-1.8-0.3-2.5-1C350.6,133.5,350.3,132.7,350.3,131.7z"
      />
      <path
        d="M371.5,117.2c-2.1-0.8-3.6-1.6-4.5-2.5h0c-1.7-1.7-2.6-3.8-2.6-6.1c0-1.7,0.5-3.3,1.4-4.7 c0.9-1.4,2.1-2.6,3.6-3.5c1.5-1,3.1-1.7,5-2.3c1.8-0.5,3.7-0.8,5.5-0.8c5.6,0,10.5,2.3,14.5,6.8c0.5,0.6,0.7,1.3,0.7,2.1 c0,1-0.3,1.9-1,2.5c-0.7,0.7-1.5,1-2.5,1c-0.7,0-1.3-0.2-1.8-0.6c-0.5-0.4-1-0.8-1.5-1.3c-2.3-2.3-5.1-3.5-8.4-3.5 c-3.3,0-5.8,1-7.8,3c-0.4,0.4-0.5,0.9-0.5,1.5c0,0.6,0.3,1.1,0.9,1.3l15.8,5.2c2.2,0.9,3.7,1.7,4.5,2.5h0c1.7,1.7,2.6,3.8,2.6,6.1 c0,1.7-0.5,3.3-1.4,4.7c-0.9,1.4-2.1,2.6-3.6,3.5c-1.5,1-3.1,1.7-4.9,2.3c-1.8,0.5-3.7,0.8-5.5,0.8c-5.7,0-10.5-2.2-14.5-6.7 c-0.5-0.7-0.7-1.4-0.7-2.2c0-1,0.3-1.9,1-2.5c0.7-0.7,1.5-1,2.5-1c0.7,0,1.4,0.2,1.9,0.7c0.5,0.4,1,0.9,1.4,1.3 c2.3,2.3,5.1,3.5,8.4,3.5c3.2,0,5.8-1,7.8-3c0.3-0.4,0.5-0.8,0.5-1.4c0-0.6-0.3-1.1-0.9-1.3L371.5,117.2z"
      />
      <path
        d="M410.1,90.6c0,1.2-0.4,2.1-1.2,2.9c-0.8,0.8-1.8,1.2-2.9,1.2s-2.1-0.4-2.9-1.2c-0.8-0.8-1.2-1.8-1.2-2.9 s0.4-2.1,1.2-2.9c0.8-0.8,1.8-1.2,2.9-1.2s2.1,0.4,2.9,1.2C409.7,88.4,410.1,89.4,410.1,90.6z M402.4,131.7v-30.8 c0-1,0.3-1.8,1-2.5c0.7-0.7,1.5-1,2.5-1c1,0,1.8,0.3,2.5,1c0.7,0.7,1,1.5,1.1,2.5v30.8c0,1-0.4,1.8-1.1,2.5c-0.7,0.7-1.5,1-2.5,1 c-1,0-1.8-0.3-2.5-1C402.8,133.5,402.4,132.7,402.4,131.7z"
      />
      <path
        d="M454.7,116.3c0,5.3-1.9,9.8-5.6,13.4c-3.7,3.7-8.2,5.6-13.4,5.6c-5.2,0-9.7-1.9-13.4-5.6 c-3.7-3.7-5.6-8.2-5.6-13.4c0-5.2,1.9-9.7,5.6-13.4c3.7-3.7,8.2-5.6,13.4-5.6c5.2,0,9.7,1.9,13.4,5.6c1.9,1.9,3.2,3.9,4.1,6.1 C454.2,111.2,454.7,113.6,454.7,116.3z M435.7,104.4c-1.7,0-3.2,0.3-4.7,0.9c-1.4,0.6-2.7,1.5-3.8,2.6c-1.1,1.1-1.9,2.3-2.5,3.8 s-0.9,3-0.9,4.6s0.3,3.2,0.9,4.6c0.6,1.4,1.5,2.7,2.5,3.8c1.1,1.1,2.3,1.9,3.8,2.6c1.4,0.6,3,0.9,4.7,0.9c1.6,0,3.2-0.3,4.6-0.9 c1.4-0.6,2.7-1.5,3.8-2.6c1.1-1.1,1.9-2.3,2.5-3.8s0.9-3,0.9-4.6s-0.3-3.2-0.9-4.6c-0.6-1.4-1.5-2.7-2.5-3.8 c-1.1-1.1-2.3-1.9-3.8-2.6C438.9,104.7,437.4,104.4,435.7,104.4z"
      />
      <path
        d="M467.2,100.8c3-2.3,6.5-3.5,10.6-3.5c2.4,0,4.6,0.5,6.8,1.4c2.1,0.9,4,2.2,5.6,3.8c1.6,1.6,2.9,3.5,3.9,5.6 c0.9,2.2,1.4,4.5,1.4,6.9v16.7c0,1-0.3,1.8-1,2.5c-0.7,0.7-1.5,1-2.5,1c-1,0-1.8-0.3-2.5-1c-0.7-0.7-1-1.5-1-2.5V115 c0-1.4-0.3-2.8-0.8-4.1c-0.6-1.3-1.3-2.4-2.3-3.4c-1-1-2.1-1.7-3.4-2.3c-1.3-0.6-2.7-0.8-4.1-0.8c-1.5,0-2.8,0.3-4.1,0.8 c-1.3,0.6-2.4,1.3-3.4,2.3c-1,1-1.7,2.1-2.3,3.4c-0.6,1.3-0.8,2.7-0.8,4.1v16.7c0,1-0.3,1.8-1,2.5c-0.7,0.7-1.5,1-2.5,1 c-1,0-1.8-0.3-2.5-1c-0.7-0.7-1-1.5-1-2.5v-30.8c0-1,0.3-1.8,1-2.5c0.7-0.7,1.5-1,2.5-1c1,0,1.8,0.4,2.5,1 C466.8,99.1,467.2,99.9,467.2,100.8z"
      />
    </g>
  </svg>
